<svg width="14" height="14" viewBox="0 0 14 14" fill="none" xmlns="http://www.w3.org/2000/svg">
<g clip-path="url(#clip0_706_22758)">
<path d="M8.00175 0.441138C8.35711 0.83326 8.90854 0.980307 9.41401 0.817944C10.1737 0.575931 10.9764 1.03851 11.1479 1.81969C11.2613 2.33742 11.6656 2.7418 12.1803 2.85208C12.9584 3.02363 13.4241 3.82626 13.1821 4.586C13.0228 5.09147 13.1698 5.64289 13.5589 5.99825C14.147 6.53436 14.147 7.46258 13.5589 8.00175C13.1667 8.35711 13.0197 8.90854 13.1821 9.41401C13.4241 10.1737 12.9615 10.9764 12.1803 11.1479C11.6626 11.2613 11.2582 11.6656 11.1479 12.1803C10.9764 12.9584 10.1737 13.4241 9.41401 13.1821C8.90854 13.0228 8.35711 13.1698 8.00175 13.5589C7.46565 14.147 6.53742 14.147 5.99825 13.5589C5.64289 13.1667 5.09147 13.0197 4.586 13.1821C3.82626 13.4241 3.02363 12.9615 2.85208 12.1803C2.73873 11.6626 2.33435 11.2582 1.81969 11.1479C1.04158 10.9764 0.57593 10.1737 0.817943 9.41401C0.977243 8.90854 0.830197 8.35711 0.441138 8.00175C-0.147046 7.46565 -0.147046 6.53742 0.441138 5.99825C0.83326 5.64289 0.980306 5.09147 0.817943 4.586C0.57593 3.82626 1.03851 3.02363 1.81969 2.85208C2.33742 2.73873 2.74179 2.33435 2.85208 1.81969C3.02363 1.04158 3.82626 0.575931 4.586 0.817944C5.09147 0.977244 5.64289 0.830197 5.99825 0.441138C6.53436 -0.147046 7.46258 -0.147046 8.00175 0.441138Z" fill="#539E68"/>
<path fill-rule="evenodd" clip-rule="evenodd" d="M9.99075 5.4982C9.99246 5.69485 9.9169 5.88431 9.7803 6.02579L6.7803 9.02579C6.69827 9.10782 6.59915 9.16885 6.49136 9.20547C6.41434 9.2316 6.33291 9.24539 6.25003 9.24539C6.05118 9.24539 5.86038 9.16641 5.71975 9.02579L4.21975 7.52579C4.08316 7.38431 4.0076 7.19485 4.00931 6.9982C4.01101 6.80154 4.08987 6.61343 4.22891 6.4744C4.36795 6.33536 4.55606 6.2565 4.75271 6.25479C4.94937 6.25308 5.13882 6.32864 5.2803 6.46524L6.25003 7.43497L8.71975 4.96524C8.81265 4.87552 8.92618 4.81216 9.04898 4.77969C9.11319 4.76273 9.17984 4.75418 9.24734 4.75479C9.444 4.7565 9.63211 4.83536 9.77115 4.9744C9.83548 5.03873 9.88687 5.11343 9.92373 5.19473C9.96658 5.28922 9.98977 5.39249 9.99075 5.4982Z" fill="white"/>
</g>
<defs>
<clipPath id="clip0_706_22758">
<rect width="14" height="14" fill="white"/>
</clipPath>
</defs>
</svg>
