<svg width="16" height="17" viewBox="0 0 16 17" fill="none" xmlns="http://www.w3.org/2000/svg">
<g clip-path="url(#clip0_73_3026)">
<path d="M16.0005 7.69889C15.9868 7.71899 15.9744 7.7399 15.9634 7.7615C15.8368 8.0546 15.5555 8.21504 15.2622 8.16064C14.9544 8.10351 14.7516 7.84759 14.7512 7.50793C14.7512 6.36217 14.7512 5.2168 14.7512 4.07103C14.7512 3.53337 14.5384 3.1084 14.0419 2.86775C13.8819 2.794 13.7098 2.75037 13.5341 2.739C13.2606 2.71827 12.9841 2.73353 12.6887 2.73353C12.6887 2.92918 12.6887 3.12132 12.6887 3.31189C12.6868 3.70633 12.4294 3.98064 12.0618 3.97986C11.6942 3.97907 11.4411 3.70398 11.4384 3.30836C11.4384 3.1221 11.4384 2.93583 11.4384 2.74057H8.59304C8.59304 2.94679 8.59656 3.15771 8.59304 3.36863C8.59482 3.48153 8.56428 3.59257 8.50502 3.68862C8.44576 3.78467 8.36027 3.8617 8.25867 3.9106C8.16028 3.96591 8.04823 3.99207 7.93557 3.98604C7.82291 3.98002 7.71428 3.94204 7.62234 3.87655C7.5378 3.82397 7.46811 3.75059 7.41991 3.66339C7.3717 3.57619 7.34658 3.47809 7.34695 3.37841C7.34265 3.17062 7.34695 2.96283 7.34695 2.74331H4.53445C4.53445 2.93896 4.53445 3.13462 4.53445 3.33028C4.5321 3.71063 4.26921 3.98299 3.9071 3.98181C3.54499 3.98064 3.28835 3.70789 3.2864 3.32402C3.2864 3.13227 3.2864 2.94092 3.2864 2.71279C2.9157 2.73431 2.55085 2.71279 2.20632 2.78518C1.60749 2.91196 1.25593 3.41676 1.25476 4.06321C1.25242 5.14088 1.25476 6.21895 1.25476 7.29702C1.25476 9.4101 1.25476 11.5242 1.25476 13.6394C1.25476 14.1771 1.46335 14.6091 1.96374 14.8411C2.16791 14.9303 2.38829 14.9761 2.61101 14.9757C4.16257 14.9871 5.71492 14.9812 7.26687 14.9824C7.59265 14.9824 7.84773 15.1902 7.90359 15.4931C7.95828 15.7865 7.79773 16.0675 7.50476 16.1943C7.48307 16.205 7.46218 16.2173 7.44226 16.2311H2.19226C2.17095 16.2182 2.14811 16.2081 2.12429 16.2009C1.26882 16.0558 0.642651 15.5928 0.261011 14.8192C0.141479 14.5774 0.0879639 14.3031 0.00476074 14.044V3.66798C0.0167158 3.65216 0.0261993 3.63461 0.0328858 3.61594C0.251245 2.33478 1.25906 1.48328 2.55906 1.48172H3.2864C3.2864 1.26884 3.2864 1.0724 3.2864 0.875963C3.28953 0.50539 3.55163 0.234211 3.90554 0.232254C4.26765 0.230298 4.53054 0.50226 4.53445 0.881442C4.53445 1.0771 4.53445 1.27276 4.53445 1.47193H7.34695C7.34695 1.27628 7.34695 1.08845 7.34695 0.902182C7.3489 0.506565 7.60476 0.232254 7.97195 0.232254C8.33913 0.232254 8.5946 0.506173 8.59695 0.902182C8.59695 1.09236 8.59695 1.28293 8.59695 1.46998H11.4419C11.4419 1.26571 11.4387 1.07358 11.4419 0.883007C11.4422 0.805364 11.4535 0.728161 11.4755 0.653698C11.5231 0.514491 11.6181 0.396537 11.7439 0.320542C11.8697 0.244547 12.0182 0.215367 12.1634 0.238124C12.3058 0.260633 12.4359 0.332044 12.5316 0.440126C12.6272 0.548208 12.6824 0.686236 12.6876 0.830571C12.6926 1.04658 12.6876 1.26102 12.6876 1.48367C12.9891 1.48367 13.2653 1.47506 13.5407 1.48367C14.5434 1.52085 15.2805 1.99238 15.7387 2.87909C15.8649 3.12249 15.9161 3.40424 16.0016 3.66837L16.0005 7.69889Z" fill="#686E73"/>
<path d="M11.8442 16.2291C11.652 16.1876 11.4571 16.1571 11.2688 16.1031C9.78056 15.6727 8.83564 14.6987 8.51728 13.1929C8.09071 11.1781 9.35361 9.26024 11.3688 8.76366C13.0196 8.35631 14.8497 9.21719 15.5923 10.7406C15.7888 11.131 15.9174 11.5523 15.9724 11.9861C15.9791 12.0162 15.9892 12.0455 16.0024 12.0734V12.8231C15.977 12.955 15.9575 13.0881 15.9243 13.218C15.5501 14.7237 14.6251 15.6993 13.1243 16.1164C12.9509 16.1646 12.7727 16.192 12.595 16.2291H11.8442ZM14.7501 12.4467C14.7481 11.0638 13.6106 9.9243 12.2255 9.91764C10.8403 9.91099 9.68642 11.0634 9.68642 12.4498C9.68642 13.8362 10.8259 14.9722 12.2114 14.9789C13.597 14.9855 14.7517 13.8347 14.7501 12.4467Z" fill="#686E73"/>
<path d="M4.53058 6.79614C4.53074 6.87815 4.51465 6.95937 4.48323 7.0351C4.45181 7.11083 4.40569 7.17955 4.34755 7.23729C4.28941 7.29502 4.2204 7.34062 4.14453 7.37142C4.06866 7.40223 3.98744 7.41764 3.90558 7.41676C3.82251 7.41763 3.7401 7.40173 3.66329 7.37C3.58648 7.33828 3.51684 7.29138 3.45851 7.23211C3.40018 7.17284 3.35437 7.10241 3.3238 7.02502C3.29323 6.94763 3.27853 6.86487 3.28058 6.78166C3.28144 6.69961 3.29856 6.61855 3.33095 6.54318C3.36335 6.46781 3.41036 6.39964 3.46927 6.34263C3.52818 6.28561 3.59782 6.24089 3.67413 6.21107C3.75043 6.18124 3.8319 6.16689 3.91379 6.16887C3.99554 6.16901 4.07644 6.18541 4.15182 6.2171C4.2272 6.24879 4.29556 6.29515 4.35292 6.3535C4.41029 6.41184 4.45553 6.481 4.48603 6.55698C4.51653 6.63297 4.53167 6.71426 4.53058 6.79614Z" fill="#686E73"/>
<path d="M7.24931 6.79731C7.24932 6.87922 7.23311 6.96032 7.20162 7.03591C7.17013 7.1115 7.12398 7.18009 7.06586 7.2377C7.00773 7.29531 6.93878 7.34079 6.86299 7.37153C6.7872 7.40227 6.70607 7.41764 6.62431 7.41676C6.54112 7.41769 6.45859 7.40178 6.38168 7.37001C6.30477 7.33823 6.23504 7.29123 6.17669 7.23182C6.11833 7.17242 6.07255 7.10182 6.04207 7.02427C6.01159 6.94672 5.99705 6.8638 5.99931 6.78048C6.00033 6.6986 6.01753 6.61773 6.04995 6.54255C6.08236 6.46737 6.12933 6.39937 6.18814 6.3425C6.24695 6.28562 6.31644 6.24099 6.39258 6.21118C6.46872 6.18138 6.55001 6.16699 6.63174 6.16886C6.71365 6.1689 6.79474 6.18526 6.87029 6.21698C6.94583 6.2487 7.01433 6.29515 7.0718 6.35363C7.12927 6.41211 7.17455 6.48145 7.20503 6.55762C7.2355 6.63378 7.25056 6.71526 7.24931 6.79731Z" fill="#686E73"/>
<path d="M9.96807 6.80005C9.96777 6.88196 9.95125 6.963 9.91948 7.03848C9.8877 7.11395 9.8413 7.18236 9.78296 7.23975C9.72462 7.29715 9.65549 7.34238 9.57958 7.37283C9.50367 7.40328 9.42249 7.41834 9.34073 7.41715C9.25767 7.41745 9.1754 7.401 9.09883 7.36877C9.02226 7.33655 8.95294 7.28921 8.89502 7.22958C8.8371 7.16995 8.79175 7.09925 8.76169 7.02169C8.73162 6.94413 8.71745 6.8613 8.72002 6.77813C8.72139 6.69623 8.73895 6.61541 8.77168 6.54034C8.80442 6.46527 8.85169 6.39745 8.91075 6.34079C8.96981 6.28414 9.0395 6.23977 9.11578 6.21026C9.19207 6.18075 9.27343 6.16668 9.35518 6.16886C9.4369 6.16962 9.51767 6.1866 9.5928 6.2188C9.66794 6.251 9.73597 6.2978 9.79295 6.35648C9.84994 6.41517 9.89475 6.48458 9.92481 6.56072C9.95487 6.63685 9.96957 6.71819 9.96807 6.80005Z" fill="#686E73"/>
<path d="M12.0583 7.41715C11.9764 7.41726 11.8954 7.40109 11.8198 7.3696C11.7442 7.33811 11.6757 7.2919 11.618 7.23367C11.5604 7.17544 11.5149 7.10633 11.4841 7.03035C11.4533 6.95438 11.4379 6.87304 11.4388 6.79105C11.4382 6.70787 11.4545 6.62544 11.4864 6.54867C11.5184 6.47191 11.5655 6.40238 11.6249 6.34425C11.6843 6.28611 11.7548 6.24055 11.8321 6.21028C11.9094 6.18001 11.9921 6.16566 12.0751 6.16808C12.1568 6.16894 12.2376 6.18603 12.3127 6.21835C12.3878 6.25068 12.4558 6.29761 12.5126 6.35641C12.5695 6.41522 12.6142 6.48474 12.6441 6.56096C12.674 6.63717 12.6885 6.71857 12.6868 6.80044C12.6864 6.88242 12.6699 6.96351 12.638 7.03902C12.6061 7.11453 12.5596 7.18295 12.5011 7.24031C12.4427 7.29768 12.3734 7.34285 12.2974 7.3732C12.2214 7.40356 12.1401 7.4185 12.0583 7.41715Z" fill="#686E73"/>
<path d="M3.88641 10.1352C3.80467 10.1333 3.72413 10.1152 3.64943 10.0819C3.57473 10.0486 3.50735 10.0008 3.4512 9.94127C3.39504 9.88174 3.35122 9.81166 3.32227 9.73506C3.29331 9.65847 3.2798 9.57688 3.2825 9.49503C3.28406 9.41181 3.30233 9.32976 3.33623 9.25377C3.37013 9.17778 3.41895 9.10941 3.47979 9.05273C3.54064 8.99606 3.61225 8.95224 3.69036 8.92388C3.76848 8.89553 3.85149 8.88323 3.93446 8.88771C4.01616 8.89068 4.09646 8.90982 4.17074 8.94404C4.24502 8.97827 4.31179 9.02688 4.36721 9.08709C4.42263 9.1473 4.4656 9.21791 4.49363 9.29485C4.52167 9.37178 4.53421 9.45351 4.53055 9.53533C4.52794 9.61721 4.50916 9.69775 4.4753 9.77231C4.44144 9.84688 4.39317 9.91398 4.33329 9.96976C4.2734 10.0255 4.20307 10.0689 4.12637 10.0973C4.04967 10.1257 3.96811 10.1386 3.88641 10.1352Z" fill="#686E73"/>
<path d="M7.24933 9.50324C7.25093 9.58516 7.23631 9.66659 7.2063 9.74281C7.17629 9.81903 7.13149 9.88854 7.0745 9.94731C7.0175 10.0061 6.94944 10.0529 6.87425 10.0852C6.79906 10.1174 6.71823 10.1344 6.63644 10.1352C6.55324 10.1375 6.47043 10.123 6.39296 10.0925C6.3155 10.062 6.24499 10.0161 6.18564 9.95766C6.1263 9.8992 6.07934 9.82934 6.0476 9.75226C6.01585 9.67518 5.99997 9.59248 6.00089 9.50911C6.00032 9.42723 6.01596 9.34606 6.04691 9.27028C6.07785 9.1945 6.12348 9.12561 6.18117 9.06761C6.23885 9.00961 6.30744 8.96363 6.38297 8.93235C6.4585 8.90107 6.53947 8.88509 6.6212 8.88535C6.7031 8.88406 6.78443 8.89907 6.86048 8.92952C6.93653 8.95997 7.00578 9.00526 7.06422 9.06274C7.12266 9.12023 7.16911 9.18877 7.20089 9.26438C7.23267 9.34 7.24913 9.42119 7.24933 9.50324Z" fill="#686E73"/>
<path d="M4.53057 12.2346C4.53053 12.3165 4.51428 12.3975 4.48276 12.4731C4.45125 12.5486 4.4051 12.6172 4.34698 12.6747C4.28886 12.7323 4.21992 12.7778 4.14416 12.8085C4.06839 12.8392 3.9873 12.8545 3.90557 12.8537C3.82251 12.8543 3.74016 12.8382 3.66345 12.8063C3.58674 12.7744 3.51723 12.7273 3.45908 12.6679C3.40093 12.6085 3.35532 12.5379 3.32499 12.4604C3.29466 12.383 3.28022 12.3002 3.28253 12.217C3.28344 12.135 3.30058 12.054 3.33297 11.9787C3.36535 11.9033 3.41233 11.8352 3.47119 11.7782C3.53005 11.7212 3.59962 11.6765 3.67586 11.6466C3.7521 11.6167 3.8335 11.6023 3.91534 11.6042C3.99722 11.6045 4.07822 11.6212 4.15363 11.6532C4.22903 11.6852 4.29734 11.7318 4.35459 11.7905C4.41183 11.8491 4.45687 11.9186 4.48708 11.9948C4.51729 12.0711 4.53207 12.1526 4.53057 12.2346Z" fill="#686E73"/>
<path d="M6.6298 11.6042C6.71167 11.604 6.79275 11.6202 6.86834 11.6516C6.94394 11.6831 7.01254 11.7293 7.07017 11.7876C7.12781 11.8458 7.17332 11.9149 7.20407 11.9909C7.23483 12.0669 7.25021 12.1483 7.24933 12.2303C7.24984 12.3135 7.23362 12.3959 7.20164 12.4727C7.16966 12.5495 7.12258 12.6191 7.0632 12.6772C7.00382 12.7354 6.93336 12.781 6.85601 12.8113C6.77867 12.8416 6.69602 12.856 6.61301 12.8537C6.53128 12.8527 6.45055 12.8356 6.37547 12.8033C6.30038 12.7709 6.23244 12.724 6.17557 12.6652C6.11869 12.6064 6.07401 12.5369 6.04409 12.4607C6.01418 12.3845 5.99963 12.3032 6.00129 12.2213C6.00159 12.1393 6.01814 12.0581 6.04999 11.9826C6.08183 11.907 6.12834 11.8386 6.18681 11.7812C6.24528 11.7238 6.31454 11.6786 6.39059 11.6482C6.46663 11.6178 6.54794 11.6028 6.6298 11.6042Z" fill="#686E73"/>
<path d="M12.8427 11.8245C12.9556 11.8245 13.0532 11.8218 13.1509 11.8245C13.3138 11.8294 13.4682 11.8987 13.5804 12.0173C13.6925 12.1358 13.7532 12.294 13.7493 12.4573C13.7491 12.6179 13.686 12.7721 13.5736 12.8868C13.4613 13.0015 13.3085 13.0676 13.1482 13.0708C12.8304 13.0766 12.5129 13.0766 12.1954 13.0708C12.0377 13.0683 11.8871 13.0044 11.7755 12.8927C11.6639 12.781 11.6 12.6302 11.5974 12.4721C11.5916 12.0299 11.5916 11.5875 11.5974 11.1448C11.599 11.0639 11.6166 10.9841 11.6491 10.91C11.6816 10.836 11.7284 10.769 11.7868 10.7132C11.8452 10.6573 11.9141 10.6135 11.9894 10.5843C12.0648 10.5552 12.1451 10.5413 12.2259 10.5433C12.3862 10.5429 12.5404 10.6051 12.6556 10.7168C12.7708 10.8284 12.8379 10.9808 12.8427 11.1413C12.8474 11.3639 12.8427 11.5862 12.8427 11.8245Z" fill="#686E73"/>
</g>
<defs>
<clipPath id="clip0_73_3026">
<rect width="16" height="16" fill="white" transform="translate(0.000488281 0.229126)"/>
</clipPath>
</defs>
</svg>
