<svg width="116" height="29" viewBox="0 0 116 29" fill="none" xmlns="http://www.w3.org/2000/svg">
<g clip-path="url(#clip0_1562_24344)">
<path d="M90.3263 2.2876H88.5242C87.8749 2.2876 87.3486 2.81885 87.3486 3.47418V5.53276C87.3486 6.18809 87.8749 6.71934 88.5242 6.71934H90.3263C90.9755 6.71934 91.5018 6.18809 91.5018 5.53276V3.47418C91.5018 2.81885 90.9755 2.2876 90.3263 2.2876Z" fill="#1B1464"/>
<path d="M34.5708 8.75452H31.3309C31.0003 8.75452 30.7069 8.97899 30.618 9.30032L28.5247 16.8372L26.1818 9.27892C26.0848 8.96548 25.8006 8.75452 25.4752 8.75452H22.2384C21.9914 8.75452 21.7616 8.87802 21.6236 9.08485C21.4857 9.29169 21.4593 9.55295 21.5522 9.78381L26.3997 21.7967C26.3808 21.9018 26.357 22.0092 26.328 22.1173C26.2841 22.2806 26.2398 22.4142 26.1967 22.5141L26.1822 22.5509C26.0126 23.0171 25.8412 23.4387 25.6723 23.8031C25.518 24.1354 25.3533 24.412 25.1822 24.6252C25.0323 24.8122 24.8709 24.9533 24.7028 25.0453C24.5526 25.1271 24.3793 25.1673 24.174 25.1673C23.9918 25.1673 23.7947 25.1545 23.5883 25.1294C23.3681 25.1023 23.1543 25.0697 22.9528 25.0321C22.7586 24.9957 22.5757 24.9518 22.4102 24.9023C22.3031 24.87 22.2082 24.8396 22.1287 24.8114C21.9212 24.7382 21.6902 24.7536 21.4942 24.8531C21.299 24.9526 21.1495 25.1305 21.0848 25.3415L20.579 26.9871C20.4675 27.3505 20.6147 27.7398 20.9375 27.9338C21.3618 28.1891 21.8475 28.4087 22.3804 28.5866C22.9799 28.7867 23.6281 28.888 24.3068 28.888C25.151 28.888 25.8798 28.7679 26.4737 28.5311C27.0755 28.2908 27.608 27.9372 28.0572 27.4792C28.4882 27.0397 28.872 26.4957 29.1989 25.8629C29.5024 25.275 29.8214 24.5971 30.1476 23.8482L30.1558 23.829L35.2658 9.75941C35.3491 9.53043 35.316 9.27404 35.1777 9.07397C35.0393 8.87389 34.8125 8.75452 34.5704 8.75452H34.5708Z" fill="#1B1464"/>
<path d="M48.516 8.99469H45.3747C45.0954 8.99469 44.869 9.2233 44.869 9.50521V18.3769C43.9757 18.8724 42.5923 19.3969 41.8429 19.3969C41.0936 19.3969 40.8344 19.0181 40.8344 18.3769V9.50521C40.8344 9.2233 40.6079 8.99469 40.3286 8.99469H37.1873C36.9081 8.99469 36.6816 9.2233 36.6816 9.50521V18.8908C36.6816 21.6191 37.5176 23.4183 39.911 23.4183C41.5257 23.4183 43.7745 22.8962 45.5045 22.0542L45.8087 22.8098C45.8861 23.0024 46.0716 23.1281 46.2773 23.1281H48.516C48.7953 23.1281 49.0218 22.8995 49.0218 22.6176V9.50521C49.0218 9.2233 48.7953 8.99469 48.516 8.99469Z" fill="#1B1464"/>
<path d="M71.6777 9.05776C70.2816 9.05776 68.5193 9.26947 67.2102 9.58254C66.8837 9.66062 66.6747 9.98157 66.7342 10.3149L67.0671 12.1712C67.1284 12.5135 67.4512 12.7414 67.7915 12.6839C68.8911 12.4989 69.9384 12.3979 70.986 12.3979C73.2068 12.3979 73.466 12.8791 73.466 14.2947V15.342H70.4378C67.5539 15.342 66.256 16.446 66.256 19.2204C66.256 21.5699 67.3229 23.4104 69.9187 23.4104C70.8703 23.4104 72.3125 23.1274 73.9276 22.2498L74.0707 22.6852C74.1574 22.9491 74.4021 23.1274 74.6773 23.1274H76.98C77.3329 23.1274 77.6192 22.8387 77.6192 22.4821V14.3228C77.6192 10.5007 76.5519 9.05701 71.678 9.05701L71.6777 9.05776ZM73.347 19.3086C73.347 19.3901 73.2991 19.4641 73.2247 19.4956C72.626 19.7497 72.0369 19.9231 71.2169 19.9231C70.3969 19.9231 70.0789 19.6131 70.0789 18.8488C70.0789 18.0845 70.4289 17.8582 71.3333 17.8582H73.1459C73.2567 17.8582 73.3467 17.949 73.3467 18.0609V19.3086H73.347Z" fill="#1B1464"/>
<path d="M83.3009 2.4346L80.4226 2.84302C80.1079 2.88769 79.874 3.15946 79.874 3.48004V22.4852C79.874 22.8403 80.1593 23.1286 80.5114 23.1286H83.3898C83.7416 23.1286 84.0272 22.8407 84.0272 22.4852V3.07162C84.0272 2.68085 83.6847 2.38017 83.3013 2.4346H83.3009Z" fill="#1B1464"/>
<path d="M88.0574 8.99463H90.793C91.1842 8.99463 91.5018 9.3152 91.5018 9.7101V22.4126C91.5018 22.8075 91.1842 23.1281 90.793 23.1281H88.0574C87.6662 23.1281 87.3486 22.8075 87.3486 22.4126V9.7101C87.3486 9.3152 87.6662 8.99463 88.0574 8.99463Z" fill="#1B1464"/>
<path d="M102.956 2.65582C102.113 2.48803 101.367 2.37354 100.414 2.37354C97.0108 2.37354 95.6553 4.02183 95.6553 6.96556V9.11424H94.1882C93.8189 9.11424 93.5195 9.41642 93.5195 9.78917V11.9127C93.5195 12.2855 93.8189 12.5876 94.1882 12.5876H95.6553V22.453C95.6553 22.8258 95.9546 23.1279 96.3239 23.1279H99.1398C99.5091 23.1279 99.8084 22.8258 99.8084 22.453V12.5876H102.222C102.569 12.5876 102.859 12.3189 102.888 11.969L103.064 9.84548C103.097 9.45171 102.789 9.11424 102.398 9.11424H99.8081V7.43629C99.8081 6.49446 99.8947 5.90549 101.221 5.90549C101.544 5.90549 101.992 5.94378 102.424 6.00346C102.784 6.05301 103.115 5.80113 103.172 5.43927L103.486 3.42272C103.542 3.06499 103.308 2.72564 102.956 2.65545L102.956 2.65582Z" fill="#1B1464"/>
<path d="M109.883 8.85577C105.385 8.85577 104.08 11.3791 104.08 14.3228V17.5188C104.08 20.8833 105.738 23.0699 110.103 23.0699C111.828 23.0699 113.622 22.7156 114.845 22.3105C115.026 22.2508 115.133 22.0628 115.097 21.8743L114.658 19.5815C114.616 19.363 114.4 19.2283 114.187 19.2842C113.045 19.5826 111.602 19.7621 110.49 19.7621C108.667 19.7621 108.059 19.3417 108.059 17.7714V17.5725C108.059 17.4659 108.145 17.3792 108.251 17.3792H114.964C115.179 17.3792 115.353 17.2035 115.353 16.9869V14.5195C115.353 11.5476 114.381 8.85615 109.883 8.85615V8.85577ZM111.556 13.8701C111.556 14.0218 111.434 14.1449 111.284 14.1449H108.387C108.237 14.1449 108.115 14.0218 108.115 13.8701V13.5559C108.115 12.6028 108.552 11.8179 109.917 11.8179C111.283 11.8179 111.556 12.6028 111.556 13.5559V13.8701Z" fill="#1B1464"/>
<path d="M63.4065 7.82343L61.3943 7.53401C61.0388 7.48296 60.7108 7.71495 60.6353 8.05917C60.5512 8.29041 60.465 8.53253 60.3787 8.7754C60.3017 8.99274 60.2243 9.20971 60.1489 9.41842C59.1187 8.98298 58.0418 8.76113 56.9447 8.75851C56.4672 8.757 55.3482 8.75475 54.2831 9.20258C52.134 10.1065 50.5833 12.7601 50.5955 15.512C50.6063 17.8712 51.764 20.7035 53.9559 21.5515C55.6546 22.2088 57.7026 21.6243 58.5773 21.375C59.0362 21.244 59.4891 21.0785 59.9261 20.8818V22.1723C59.9425 22.5736 59.8986 23.5984 59.1414 24.4419C58.4605 25.2005 57.6007 25.371 57.2333 25.4438C56.2921 25.6307 55.5461 25.4055 55.1452 25.2846C54.6126 25.124 54.1106 24.8747 53.6528 24.544C53.3475 24.3229 52.9354 24.3567 52.6733 24.624L51.4784 25.8413C51.3244 25.9982 51.2449 26.2144 51.2601 26.4348C51.275 26.6525 51.3817 26.853 51.5528 26.9851C51.999 27.3289 52.4788 27.6308 52.9793 27.8826C54.5743 28.6852 56.0726 28.8346 56.967 28.8346C57.073 28.8346 57.1708 28.8323 57.259 28.829L57.3054 28.8271C58.2682 28.7907 60.2716 28.7152 61.8774 27.2696C63.2764 26.011 63.9856 24.0857 63.9856 21.5473L63.9766 8.55805L63.9967 8.56068C64.0261 8.19844 63.7676 7.87411 63.4065 7.82231V7.82343ZM56.5486 18.0822C56.1704 18.045 55.5989 17.9891 55.1597 17.6423C54.3374 16.9932 54.4211 15.7124 54.4486 15.2916C54.5059 14.414 54.803 13.6993 55.3322 13.1681C55.4535 13.0461 55.706 12.7927 56.1206 12.6084C56.4702 12.453 56.832 12.3963 57.1887 12.3963C57.7316 12.3963 58.2638 12.5277 58.7275 12.6418C58.8759 12.6786 59.0254 12.7199 59.1712 12.7653C59.2638 12.7938 59.3255 12.8794 59.3251 12.9774L59.311 17.3506C59.311 17.4362 59.2638 17.5124 59.1886 17.5488C59.0927 17.5953 58.9938 17.6396 58.8949 17.6805C58.5408 17.8266 58.1671 17.9354 57.7829 18.0041C57.4784 18.0586 57.0615 18.1329 56.5483 18.0826L56.5486 18.0822Z" fill="#1B1464"/>
<path d="M7.34222 0.887207H3.57467C3.08118 0.887207 2.68066 1.30088 2.68066 1.81139V7.31109C2.68066 7.79608 3.01982 8.0123 3.37757 8.2334C3.78739 8.48678 4.20167 8.73303 4.62375 8.96352C5.54342 9.4654 6.49693 9.8588 7.49544 10.1527C7.80707 10.2443 8.23548 10.1933 8.23548 9.76345V1.81139C8.23548 1.30088 7.83534 0.887207 7.34185 0.887207H7.34222Z" fill="#1B1464"/>
<path d="M15.5495 0.887207H19.3171C19.8106 0.887207 20.2111 1.30088 20.2111 1.81139C20.2111 1.81139 20.2111 7.30809 20.2111 7.31109C20.2111 7.79608 19.8719 8.0123 19.5142 8.2334C19.1043 8.48678 18.6901 8.73303 18.268 8.96352C17.3483 9.4654 16.3948 9.8588 15.3963 10.1527C15.0847 10.2443 14.6563 10.1933 14.6563 9.76345V1.81139C14.6559 1.30088 15.056 0.887207 15.5495 0.887207Z" fill="#1B1464"/>
<path d="M20.2107 7.35989C20.2107 7.21913 20.0675 7.12791 19.9463 7.19172C17.6711 8.38581 15.2843 9.5142 12.725 9.8269C10.7667 10.066 8.87195 9.64972 7.01328 9.02696C5.99172 8.68461 4.98206 8.29234 4.02632 7.78332C3.04938 7.26267 2.25057 6.56409 1.37219 5.89741C1.22529 5.78592 0.819568 5.4387 0.677881 5.71047C0.646643 5.77016 0.643667 5.84223 0.64813 5.9083C0.653336 5.98563 0.670071 6.06183 0.689781 6.13653C0.708747 6.20935 0.731432 6.28143 0.752257 6.3535C0.779033 6.44772 0.80804 6.54119 0.839278 6.63391C0.870888 6.72738 0.903986 6.82047 0.938943 6.91282C0.9739 7.00516 1.01034 7.09713 1.04753 7.18835C1.22641 7.62491 1.44991 8.04121 1.70316 8.43611C1.93708 8.80098 2.21822 9.13882 2.40342 9.53485C2.51424 9.77134 2.64514 10.1377 2.67973 10.6524C2.67973 10.6572 2.6801 10.6621 2.6801 10.667L2.76861 22.1063C2.76861 22.6169 3.16875 23.0305 3.66261 23.0305H5.96048C6.55475 23.0305 7.03671 22.5324 7.03671 21.9179V14.6716C7.91249 15.0604 9.42048 15.595 11.355 15.6186C13.4331 15.6442 15.0471 15.0687 15.9429 14.6704V21.9175C15.9429 22.532 16.4249 23.0301 17.0192 23.0301H19.1337C19.728 23.0301 20.2099 22.532 20.2099 21.9175V7.35989H20.2107Z" fill="#1B1464"/>
</g>
<defs>
<clipPath id="clip0_1562_24344">
<rect width="116" height="28" fill="white" transform="translate(0 0.311035)"/>
</clipPath>
</defs>
</svg>
