<svg width="72" height="72" viewBox="0 0 72 72" fill="none" xmlns="http://www.w3.org/2000/svg">
<g filter="url(#filter0_d_1381_69630)">
<rect x="8" y="6" width="56" height="56" rx="12" fill="#3E9365"/>
<g clip-path="url(#clip0_1381_69630)">
<path d="M51.2745 29.1125C51.1847 28.7979 51.1421 28.4691 51.0837 28.1459C50.9678 27.5025 50.7226 26.8867 50.4624 26.3088C50.1312 25.5748 49.7362 24.8541 49.2647 24.1839C47.7035 21.9668 45.6921 20.3253 43.1532 19.3571C42.1747 18.9842 41.1607 18.7311 40.1136 18.6144C39.4528 18.5403 38.7921 18.4819 38.1266 18.5048C37.26 18.5332 36.4053 18.6562 35.5577 18.8446C34.5011 19.0803 33.4809 19.4257 32.526 19.9287C30.3269 21.0869 28.5654 22.719 27.2794 24.8581C26.4373 26.2599 25.8956 27.7714 25.6102 29.3743C25.447 30.292 25.4533 31.2247 25.4841 32.1543C25.5093 32.9175 25.6118 33.6673 25.7892 34.4022C26.1968 34.343 26.6013 34.3131 26.9995 34.3131C28.679 34.3131 30.2623 34.8319 31.706 35.8545C33.6196 37.2098 34.785 39.1415 35.0767 41.4398C35.1895 42.3244 35.1761 43.1752 35.0373 43.9794C35.7091 44.1639 36.3959 44.29 37.0992 44.3563C37.8144 44.4233 38.5271 44.439 39.2423 44.4067C39.7335 44.3854 40.2452 44.4185 40.7105 44.2908C41.2395 44.1457 41.8057 44.1213 42.3 43.8643C42.6383 43.6884 42.9316 43.7767 43.2391 43.9297C44.3012 44.458 45.3664 44.9807 46.4301 45.5034C46.7376 45.6548 46.7794 45.6288 46.7794 45.2969C46.7802 44.1087 46.7833 42.9197 46.7763 41.7315C46.7747 41.5486 46.8299 41.428 46.9663 41.3026C48.0362 40.3155 49.0313 39.2629 49.7488 37.9793C50.2298 37.1191 50.6587 36.2369 50.9205 35.2789C51.1224 34.5417 51.3329 33.8085 51.3928 33.0413C51.3999 32.953 51.4165 32.8489 51.5001 32.7827V30.4229C51.3644 29.9971 51.3975 29.5438 51.2745 29.1125ZM34.2725 31.8074C34.2473 32.8379 33.3318 33.6074 32.3998 33.5491C31.4671 33.5893 30.554 32.6195 30.61 31.6268C30.6604 30.7083 31.4978 29.867 32.4495 29.8986C33.5944 29.9372 34.2985 30.7509 34.2725 31.8074ZM38.4719 33.5554C37.4595 33.5806 36.6285 32.6313 36.634 31.7427C36.6403 30.7438 37.4603 29.9009 38.4522 29.8946C39.5001 29.8883 40.2847 30.6705 40.287 31.7246C40.2902 32.7654 39.5104 33.5294 38.4719 33.5554ZM46.3079 31.8981C46.2566 32.8742 45.3436 33.605 44.4463 33.5491C43.4031 33.5672 42.606 32.543 42.658 31.6473C42.7069 30.7895 43.411 29.8568 44.533 29.8994C45.4816 29.9348 46.3773 30.594 46.3079 31.8981Z" fill="white"/>
<path d="M33.2781 41.6684C33.0479 39.8542 32.149 38.3901 30.6572 37.3336C29.5218 36.5294 28.2981 36.1265 26.9994 36.1265C26.4578 36.1265 25.9034 36.1966 25.3365 36.337C24.0087 36.6847 22.882 37.3596 22.006 38.4216C20.8012 39.8834 20.3021 41.562 20.5709 43.4393C20.7909 44.9728 21.5021 46.2595 22.6596 47.2908C22.7984 47.4146 22.8591 47.5368 22.856 47.7197C22.8465 48.2007 22.852 48.6824 22.8536 49.1642C22.8536 49.2801 22.8339 49.4023 22.9246 49.5H23.0428C23.0397 49.351 23.1737 49.3423 23.262 49.2982C23.6839 49.0877 24.112 48.8898 24.5323 48.6769C24.6387 48.6225 24.7428 48.5917 24.8492 48.5917C24.921 48.5917 24.9935 48.6059 25.0692 48.6359C25.6322 48.863 26.2173 48.9418 26.8047 48.9418C27.0665 48.9418 27.329 48.926 27.59 48.9008C28.8445 48.7786 29.9799 48.3071 30.9639 47.5061C31.9811 46.6782 32.6939 45.6414 33.0794 44.3838C33.3562 43.4945 33.3925 42.5712 33.2781 41.6684ZM27.4678 46.0057C27.3109 46.2595 26.6943 46.6175 26.1502 46.1949C25.7607 45.8937 25.7355 45.393 25.9705 45.0714C26.2141 44.7386 26.6927 44.644 27.0964 44.8325C27.5829 45.0595 27.6831 45.6587 27.4678 46.0057ZM28.6679 42.0587C28.4069 42.2645 28.1278 42.4356 27.8534 42.6146C27.5742 42.7983 27.4347 43.0348 27.4418 43.3801C27.4481 43.7988 27.1224 44.0976 26.7069 44.0953C26.2969 44.0913 25.9957 43.7925 25.9847 43.3786C25.9831 43.3005 25.9847 43.2256 25.9847 43.1152C25.9476 42.5546 26.211 42.11 26.6691 41.7599C26.8283 41.6385 26.9963 41.5383 27.165 41.4327C27.3574 41.3152 27.5459 41.1914 27.6965 41.0188C28.0213 40.6442 27.8865 40.1333 27.4173 39.9756C26.9324 39.8164 26.1818 39.9071 25.9366 40.6758C25.8144 41.0558 25.5021 41.2356 25.0953 41.2025C24.7562 41.1733 24.4771 40.9076 24.4109 40.5536C24.384 40.4211 24.4045 40.2926 24.4463 40.1688C24.7294 39.3315 25.3074 38.7961 26.1534 38.5659C26.9766 38.3444 27.7737 38.4043 28.5149 38.8734C29.562 39.5373 29.8616 41.1228 28.6679 42.0587Z" fill="white"/>
</g>
</g>
<defs>
<filter id="filter0_d_1381_69630" x="0" y="0" width="72" height="72" filterUnits="userSpaceOnUse" color-interpolation-filters="sRGB">
<feFlood flood-opacity="0" result="BackgroundImageFix"/>
<feColorMatrix in="SourceAlpha" type="matrix" values="0 0 0 0 0 0 0 0 0 0 0 0 0 0 0 0 0 0 127 0" result="hardAlpha"/>
<feOffset dy="2"/>
<feGaussianBlur stdDeviation="4"/>
<feComposite in2="hardAlpha" operator="out"/>
<feColorMatrix type="matrix" values="0 0 0 0 0 0 0 0 0 0 0 0 0 0 0 0 0 0 0.23 0"/>
<feBlend mode="normal" in2="BackgroundImageFix" result="effect1_dropShadow_1381_69630"/>
<feBlend mode="normal" in="SourceGraphic" in2="effect1_dropShadow_1381_69630" result="shape"/>
</filter>
<clipPath id="clip0_1381_69630">
<rect width="31" height="31" fill="white" transform="translate(20.5 18.5)"/>
</clipPath>
</defs>
</svg>
