<svg width="40" height="40" viewBox="0 0 40 40" fill="none" xmlns="http://www.w3.org/2000/svg">
<g id="Frame 1000003573">
<g id="Group 1000003267">
<path id="Vector" d="M22.602 2.961C23.525 3.9795 24.9573 4.36144 26.2702 3.93972C28.2435 3.31111 30.3283 4.51262 30.7739 6.54166C31.0683 7.8864 32.1186 8.93673 33.4554 9.22318C35.4765 9.66878 36.6859 11.7535 36.0573 13.7269C35.6436 15.0398 36.0255 16.472 37.0361 17.3951C38.5638 18.7875 38.5638 21.1985 37.0361 22.599C36.0176 23.522 35.6356 24.9542 36.0573 26.2671C36.6859 28.2405 35.4844 30.3252 33.4554 30.7708C32.1107 31.0652 31.0603 32.1156 30.7739 33.4523C30.3283 35.4734 28.2435 36.6829 26.2702 36.0543C24.9573 35.6405 23.525 36.0225 22.602 37.033C21.2095 38.5608 18.7985 38.5608 17.3981 37.033C16.4751 36.0145 15.0428 35.6326 13.7299 36.0543C11.7566 36.6829 9.67183 35.4814 9.22623 33.4523C8.93182 32.1076 7.8815 31.0573 6.54471 30.7708C4.52363 30.3252 3.31416 28.2405 3.94276 26.2671C4.35653 24.9542 3.97459 23.522 2.96405 22.599C1.4363 21.2065 1.4363 18.7955 2.96405 17.3951C3.98255 16.472 4.36449 15.0398 3.94276 13.7269C3.31416 11.7535 4.51567 9.66878 6.54471 9.22318C7.88945 8.92877 8.93978 7.87844 9.22623 6.54166C9.67183 4.52058 11.7566 3.31111 13.7299 3.93972C15.0428 4.35348 16.4751 3.97154 17.3981 2.961C18.7906 1.43325 21.2016 1.43325 22.602 2.961Z" fill="#6266B8"/>
<g id="Group">
<path id="Vector_2" d="M17.011 28.8945L15.3545 28.4276C14.8182 28.2762 14.556 27.6327 14.8182 27.1153L22.6716 11.4562C22.8384 11.1281 23.1721 10.9389 23.5296 10.9767L24.3162 11.065C24.912 11.1281 25.2576 11.7843 25.0193 12.3647L18.0477 28.415C17.869 28.8188 17.44 29.0333 17.0348 28.9197L17.011 28.8945Z" fill="white"/>
<path id="Vector_3" d="M13.8226 11.665C11.6775 11.9678 9.67539 13.9993 9.77073 16.2832C9.86607 18.5671 11.6298 20.1065 13.7987 19.993C15.9676 19.8794 18.2081 18.1381 18.1008 15.8542C17.9936 13.5703 16.4443 11.2991 13.8226 11.665ZM13.7749 17.6712C12.8811 17.7217 12.4282 16.5987 12.3806 15.6649C12.3329 14.7186 13.0479 14.1508 13.9298 14.1129C14.8236 14.0624 15.5744 14.7943 15.622 15.728C15.6697 16.6744 14.6568 17.6207 13.7749 17.6712Z" fill="white"/>
<path id="Vector_4" d="M25.9502 20.6164C23.8052 20.9192 21.8031 22.9508 21.8984 25.2346C22.0057 27.5185 23.7575 29.0579 25.9264 28.9444C28.0953 28.8308 30.3358 27.0895 30.2285 24.8056C30.1212 22.5217 28.572 20.2505 25.9502 20.6164ZM25.9026 26.6226C25.0088 26.6731 24.5559 25.5501 24.5083 24.6164C24.4606 23.67 25.1756 23.1022 26.0575 23.0643C26.9513 23.0138 27.7021 23.7457 27.7497 24.6794C27.7974 25.6258 26.7844 26.5722 25.9026 26.6226Z" fill="white"/>
</g>
</g>
</g>
</svg>
