<svg width="24" height="25" viewBox="0 0 24 25" fill="none" xmlns="http://www.w3.org/2000/svg">
<path d="M16.2787 14.8778C15.8712 14.8771 15.4678 14.9586 15.0926 15.1173C14.7173 15.2761 14.3779 15.5089 14.0947 15.8018L10.5743 13.5414C10.8491 12.8288 10.8491 12.0394 10.5743 11.3268L14.0947 9.06644C14.5899 9.57293 15.2458 9.89154 15.9501 9.96775C16.6543 10.044 17.3632 9.87303 17.9553 9.48421C18.5474 9.09539 18.986 8.51285 19.196 7.83631C19.406 7.15977 19.3743 6.43129 19.1063 5.77554C18.8384 5.11979 18.3509 4.57756 17.7272 4.24164C17.1035 3.90572 16.3825 3.797 15.6875 3.9341C14.9925 4.07119 14.3668 4.44557 13.9174 4.99316C13.4681 5.54075 13.223 6.22751 13.2241 6.93588C13.2254 7.3144 13.2952 7.68957 13.4303 8.04316L9.90993 10.3035C9.48609 9.86811 8.94202 9.56898 8.34728 9.44441C7.75254 9.31984 7.13416 9.37548 6.57121 9.60423C6.00826 9.83297 5.52632 10.2244 5.18703 10.7285C4.84774 11.2326 4.6665 11.8265 4.6665 12.4341C4.6665 13.0417 4.84774 13.6356 5.18703 14.1397C5.52632 14.6438 6.00826 15.0352 6.57121 15.264C7.13416 15.4927 7.75254 15.5484 8.34728 15.4238C8.94202 15.2992 9.48609 15.0001 9.90993 14.5647L13.4303 16.825C13.2952 17.1786 13.2254 17.5538 13.2241 17.9323C13.2241 18.5365 13.4033 19.127 13.7389 19.6293C14.0746 20.1317 14.5516 20.5232 15.1098 20.7544C15.6679 20.9856 16.2821 21.0461 16.8746 20.9282C17.4671 20.8103 18.0114 20.5194 18.4386 20.0922C18.8658 19.665 19.1567 19.1208 19.2746 18.5282C19.3924 17.9357 19.3319 17.3215 19.1007 16.7634C18.8696 16.2052 18.478 15.7282 17.9757 15.3925C17.4734 15.0569 16.8828 14.8778 16.2787 14.8778ZM16.2787 5.10314C16.6412 5.10314 16.9955 5.21063 17.2969 5.41201C17.5983 5.6134 17.8332 5.89963 17.9719 6.23452C18.1106 6.56941 18.1469 6.93791 18.0762 7.29343C18.0055 7.64895 17.831 7.97551 17.5746 8.23182C17.3183 8.48814 16.9918 8.66269 16.6362 8.73341C16.2807 8.80412 15.9122 8.76783 15.5773 8.62911C15.2424 8.4904 14.9562 8.25549 14.7548 7.9541C14.5534 7.6527 14.446 7.29836 14.446 6.93588C14.448 6.45043 14.6417 5.98543 14.985 5.64216C15.3282 5.29889 15.7932 5.10515 16.2787 5.10314ZM7.72591 14.2668C7.36343 14.2668 7.00909 14.1594 6.7077 13.958C6.4063 13.7566 6.1714 13.4703 6.03268 13.1355C5.89396 12.8006 5.85767 12.4321 5.92839 12.0766C5.9991 11.721 6.17366 11.3945 6.42997 11.1382C6.68628 10.8818 7.01285 10.7073 7.36836 10.6366C7.72388 10.5659 8.09238 10.6022 8.42727 10.7409C8.76216 10.8796 9.0484 11.1145 9.24978 11.4159C9.45116 11.7173 9.55865 12.0716 9.55865 12.4341C9.55664 12.9196 9.3629 13.3846 9.01963 13.7278C8.67636 14.0711 8.21137 14.2648 7.72591 14.2668ZM16.2787 19.7651C15.9162 19.7651 15.5619 19.6576 15.2605 19.4562C14.9591 19.2548 14.7242 18.9686 14.5855 18.6337C14.4468 18.2988 14.4105 17.9303 14.4812 17.5748C14.5519 17.2193 14.7264 16.8927 14.9828 16.6364C15.2391 16.3801 15.5656 16.2055 15.9211 16.1348C16.2767 16.0641 16.6452 16.1004 16.9801 16.2391C17.3149 16.3778 17.6012 16.6127 17.8026 16.9141C18.004 17.2155 18.1114 17.5698 18.1114 17.9323C18.1094 18.4178 17.9157 18.8828 17.5724 19.226C17.2291 19.5693 16.7642 19.7631 16.2787 19.7651Z" fill="#262261" stroke="#262261" stroke-width="0.6"/>
</svg>
